<?xml version="1.0" standalone="no"?>
<!DOCTYPE svg PUBLIC "-//W3C//DTD SVG 20010904//EN"
 "http://www.w3.org/TR/2001/REC-SVG-20010904/DTD/svg10.dtd">
<svg version="1.0" xmlns="http://www.w3.org/2000/svg"
 width="137.000000pt" height="137.000000pt" viewBox="0 0 137.000000 137.000000"
 preserveAspectRatio="xMidYMid meet">
<metadata>
Created by potrace 1.11, written by Peter Selinger 2001-2013
</metadata>
<g transform="translate(0.000000,137.000000) scale(0.100000,-0.100000)"
fill="#000000" stroke="none">
<path d="M1009 959 c-16 -18 -46 -60 -65 -95 -39 -70 -94 -121 -94 -87 0 10 7
28 15 40 15 21 11 53 -5 53 -5 0 -17 -12 -29 -27 -20 -27 -21 -28 -49 -12 -30
17 -30 17 -35 -10 -7 -33 -45 -83 -58 -75 -6 3 -1 20 11 41 22 37 19 73 -6 73
-24 0 -75 -30 -69 -40 4 -6 16 -3 31 6 29 20 30 15 4 -29 -23 -39 -18 -65 15
-73 36 -9 64 4 81 38 10 19 20 28 30 24 9 -3 18 -6 20 -6 2 0 4 -7 4 -15 0 -9
11 -21 25 -27 21 -9 28 -8 45 7 20 18 21 18 43 -3 28 -26 45 -27 75 -6 22 15
24 15 36 -1 9 -13 20 -16 39 -11 20 5 27 3 27 -8 0 -25 32 -27 79 -4 32 16 47
30 49 46 3 22 2 22 -42 -10 -53 -36 -68 -32 -37 10 12 17 21 32 21 35 0 10
-62 37 -83 37 -12 0 -32 -11 -46 -24 -44 -40 -78 -59 -86 -46 -5 7 13 30 44
57 74 64 101 129 69 161 -18 18 -27 15 -59 -19z m40 -46 c-26 -45 -66 -89 -74
-82 -6 7 76 119 88 119 5 0 -1 -17 -14 -37z m81 -117 c0 -22 -51 -59 -64 -46
-6 6 -2 18 14 35 26 28 50 33 50 11z"/>
<path d="M872 904 c2 -11 11 -20 22 -22 13 -3 17 1 14 14 -2 11 -11 20 -22 22
-13 3 -17 -1 -14 -14z"/>
<path d="M516 835 c-29 -31 -90 -146 -106 -200 -10 -34 -22 -46 -78 -80 -73
-45 -84 -60 -51 -68 15 -4 36 4 65 24 l43 29 37 -25 c46 -31 54 -31 88 0 l28
25 30 -25 c39 -33 51 -32 95 12 20 21 40 38 43 38 26 3 51 21 56 41 3 13 13
24 21 24 10 0 13 -6 10 -17 -3 -10 -10 -32 -15 -49 -11 -35 -8 -43 28 -67 36
-25 65 -21 95 14 24 29 27 30 39 14 10 -15 21 -17 55 -11 27 4 40 3 36 -3 -9
-16 33 -33 64 -26 43 9 111 72 111 101 0 23 -2 22 -55 -21 -51 -41 -75 -54
-75 -40 0 3 9 24 21 46 21 43 20 69 -5 69 -7 0 -27 7 -42 15 -41 21 -60 11
-136 -66 -37 -38 -72 -69 -78 -69 -30 0 5 83 61 145 11 12 15 25 10 33 -6 10
-20 6 -60 -14 -44 -23 -56 -26 -72 -16 -26 17 -29 15 -29 -11 0 -41 -43 -77
-45 -39 -2 27 -20 53 -40 58 -32 8 -60 -9 -125 -77 -57 -61 -76 -70 -86 -44
-4 10 9 29 39 55 52 46 104 123 113 168 8 39 -17 82 -47 82 -11 0 -31 -11 -43
-25z m53 -62 c-11 -27 -32 -63 -47 -82 -15 -19 -30 -39 -34 -45 -4 -6 -10 -8
-13 -5 -5 6 39 90 79 152 29 43 37 32 15 -20z m501 -158 c0 -19 -58 -77 -72
-73 -22 8 -18 23 12 60 30 36 60 42 60 13z m-410 -16 c0 -9 -40 -49 -50 -49
-17 0 -11 26 11 54 17 21 24 25 30 14 5 -7 9 -16 9 -19z"/>
<path d="M360 805 c-25 -8 -64 -19 -86 -24 -39 -10 -42 -13 -47 -55 -4 -24
-20 -85 -36 -135 -28 -88 -28 -92 -10 -101 21 -12 37 8 60 73 15 42 37 58 107
77 59 15 50 35 -17 34 -54 -2 -57 1 -40 39 9 19 28 30 85 47 76 22 83 27 62
48 -14 14 -19 14 -78 -3z"/>
</g>
</svg>
